<?xml version="1.0" standalone="no"?><!DOCTYPE svg PUBLIC "-//W3C//DTD SVG 1.1//EN" "http://www.w3.org/Graphics/SVG/1.1/DTD/svg11.dtd"><svg t="1737303142999" class="icon" viewBox="0 0 1024 1024" version="1.1" xmlns="http://www.w3.org/2000/svg" p-id="4271" width="256" height="256" xmlns:xlink="http://www.w3.org/1999/xlink"><path d="M618.666667 576H298.666667a10.666667 10.666667 0 0 1 0-21.333333h320a10.666667 10.666667 0 0 1 0 21.333333z" fill="#00A99D" p-id="4272"></path><path d="M458.666667 725.333333a10.666667 10.666667 0 0 1-10.666667-10.666666V416a10.666667 10.666667 0 0 1 21.333333 0v298.666667a10.666667 10.666667 0 0 1-10.666666 10.666666z" fill="#00A99D" p-id="4273"></path><path d="M693.333333 842.666667H213.333333a42.666667 42.666667 0 0 1-42.666666-42.666667V341.333333a42.666667 42.666667 0 0 1 42.666666-42.666666h480a42.666667 42.666667 0 0 1 42.666667 42.666666v458.666667a42.666667 42.666667 0 0 1-42.666667 42.666667zM213.333333 320a21.333333 21.333333 0 0 0-21.333333 21.333333v458.666667a21.333333 21.333333 0 0 0 21.333333 21.333333h480a21.333333 21.333333 0 0 0 21.333334-21.333333V341.333333a21.333333 21.333333 0 0 0-21.333334-21.333333z" fill="#4D4D4D" p-id="4274"></path><path d="M810.666667 693.333333a10.666667 10.666667 0 0 1-10.666667-10.666666V202.666667H330.666667v106.666666a10.666667 10.666667 0 0 1-21.333334 0V192a10.666667 10.666667 0 0 1 10.666667-10.666667h490.666667a10.666667 10.666667 0 0 1 10.666666 10.666667v490.666667a10.666667 10.666667 0 0 1-10.666666 10.666666z" fill="#4D4D4D" p-id="4275"></path></svg>